<?xml version="1.0" encoding="UTF-8"?>
<svg id="Server_Colour" data-name="Server Colour" xmlns="http://www.w3.org/2000/svg" viewBox="0 0 512 512">
  <defs>
    <style>
      .cls-1 {
        fill: #51af99;
      }

      .cls-1, .cls-2, .cls-3, .cls-4, .cls-5, .cls-6, .cls-7, .cls-8 {
        fill-rule: evenodd;
        stroke-width: 0px;
      }

      .cls-2 {
        fill: #ea8c50;
      }

      .cls-3 {
        fill: #de366b;
      }

      .cls-4 {
        fill: #ec5855;
      }

      .cls-5 {
        fill: #3b8abe;
      }

      .cls-6 {
        fill: #b4b952;
      }

      .cls-7 {
        fill: #fdad15;
      }

      .cls-8 {
        fill: #6f5b9a;
      }
    </style>
  </defs>
  <path class="cls-7" d="M296.21,63.91c4.29,0,7.77,3.48,7.77,7.77s-3.48,7.77-7.77,7.77-7.77-3.48-7.77-7.77,3.48-7.77,7.77-7.77h0Z"/>
  <path class="cls-7" d="M325.47,57.32c3.61,0,6.54,2.93,6.54,6.54s-2.93,6.54-6.54,6.54-6.54-2.93-6.54-6.54,2.93-6.54,6.54-6.54h0Z"/>
  <path class="cls-7" d="M357.91,55.77c2.66,0,4.82,2.15,4.82,4.82s-2.16,4.82-4.82,4.82-4.82-2.16-4.82-4.82,2.16-4.82,4.82-4.82h0Z"/>
  <path class="cls-7" d="M315.98,93.57c5.07,1.36,8.07,6.56,6.71,11.63-1.36,5.07-6.56,8.07-11.63,6.72-5.07-1.36-8.07-6.57-6.72-11.63,1.36-5.07,6.56-8.07,11.63-6.71h0Z"/>
  <path class="cls-7" d="M344.56,80.86c4.15,1.11,6.6,5.37,5.49,9.52-1.11,4.14-5.37,6.6-9.52,5.49-4.15-1.11-6.6-5.37-5.49-9.51,1.11-4.15,5.37-6.61,9.52-5.5h0Z"/>
  <path class="cls-7" d="M374.52,82.07c3.49.94,5.56,4.52,4.63,8.01-.94,3.49-4.52,5.56-8.01,4.63-3.49-.94-5.56-4.52-4.63-8.01.94-3.49,4.52-5.56,8.01-4.63h0Z"/>
  <path class="cls-7" d="M406.26,88.97c2.57.69,4.09,3.33,3.4,5.9-.69,2.57-3.33,4.09-5.9,3.41-2.57-.69-4.09-3.33-3.41-5.9.69-2.57,3.33-4.09,5.9-3.41h0Z"/>
  <path class="cls-7" d="M294.36,112.85c6.96,1.86,11.09,9.01,9.22,15.97-1.86,6.96-9.01,11.09-15.97,9.22-6.96-1.86-11.09-9.01-9.22-15.97,1.86-6.96,9.02-11.09,15.97-9.22h0Z"/>
  <path class="cls-7" d="M355.98,114.63c4.54,2.62,6.1,8.43,3.47,12.97-2.62,4.54-8.43,6.1-12.97,3.48-4.54-2.62-6.1-8.43-3.48-12.97,2.62-4.54,8.43-6.1,12.97-3.48h0Z"/>
  <path class="cls-7" d="M386.87,109.75c3.72,2.15,4.99,6.9,2.84,10.61-2.15,3.72-6.9,4.99-10.61,2.84-3.72-2.15-4.99-6.9-2.85-10.61,2.15-3.72,6.9-4.99,10.62-2.84h0Z"/>
  <path class="cls-7" d="M415.5,118.67c3.13,1.81,4.2,5.81,2.39,8.94-1.81,3.13-5.81,4.2-8.94,2.39-3.13-1.81-4.2-5.81-2.39-8.94,1.81-3.13,5.81-4.2,8.94-2.39h0Z"/>
  <path class="cls-7" d="M444.37,133.55c2.31,1.33,3.09,4.27,1.76,6.58-1.33,2.3-4.27,3.09-6.58,1.76-2.3-1.33-3.09-4.28-1.76-6.58,1.33-2.3,4.28-3.09,6.58-1.76h0Z"/>
  <path class="cls-7" d="M330.1,127.65c6.24,3.6,8.38,11.58,4.77,17.82-3.6,6.24-11.58,8.37-17.81,4.77-6.24-3.6-8.38-11.58-4.78-17.82,3.6-6.24,11.58-8.37,17.82-4.77h0Z"/>
  <path class="cls-2" d="M389.16,145.33c3.71,3.71,3.71,9.72,0,13.43-3.71,3.71-9.72,3.71-13.43,0-3.71-3.71-3.71-9.72,0-13.43,3.71-3.71,9.72-3.71,13.43,0h0Z"/>
  <path class="cls-2" d="M420.26,148.6c3.04,3.04,3.04,7.95,0,10.99-3.03,3.03-7.95,3.03-10.99,0-3.03-3.04-3.03-7.95,0-10.99,3.04-3.04,7.96-3.04,10.99,0h0Z"/>
  <path class="cls-2" d="M445.61,164.63c2.56,2.56,2.56,6.7,0,9.25-2.55,2.55-6.7,2.56-9.25,0-2.55-2.56-2.55-6.7,0-9.25,2.56-2.56,6.7-2.56,9.25,0h0Z"/>
  <path class="cls-2" d="M469.64,186.48c1.88,1.88,1.88,4.93,0,6.81-1.88,1.88-4.93,1.88-6.81,0-1.88-1.88-1.88-4.93,0-6.81,1.88-1.88,4.93-1.88,6.81,0h0Z"/>
  <path class="cls-2" d="M360.8,151.2c5.1,5.09,5.09,13.35,0,18.44-5.09,5.09-13.35,5.09-18.44,0-5.09-5.09-5.1-13.35,0-18.44,5.09-5.09,13.35-5.09,18.44,0h0Z"/>
  <path class="cls-2" d="M413.27,183.56c2.62,4.54,1.07,10.35-3.48,12.97-4.54,2.62-10.35,1.07-12.97-3.47-2.62-4.54-1.07-10.35,3.48-12.97,4.54-2.62,10.35-1.06,12.97,3.48h0Z"/>
  <path class="cls-2" d="M442.46,194.77c2.15,3.72.87,8.47-2.85,10.62-3.72,2.14-8.47.87-10.61-2.84-2.15-3.72-.87-8.47,2.84-10.61,3.72-2.15,8.47-.87,10.61,2.84h0Z"/>
  <path class="cls-2" d="M462.79,216.82c1.81,3.13.73,7.13-2.39,8.93-3.13,1.81-7.13.74-8.94-2.39-1.81-3.13-.73-7.13,2.39-8.93,3.13-1.81,7.13-.74,8.94,2.39h0Z"/>
  <path class="cls-2" d="M480.35,244.14c1.33,2.3.54,5.25-1.76,6.58-2.3,1.33-5.25.54-6.58-1.76-1.33-2.3-.54-5.25,1.76-6.58,2.3-1.33,5.25-.54,6.58,1.76h0Z"/>
  <path class="cls-2" d="M384.35,181.9c3.6,6.24,1.47,14.21-4.77,17.81-6.24,3.6-14.21,1.47-17.81-4.77-3.6-6.24-1.47-14.22,4.77-17.82,6.24-3.6,14.21-1.47,17.81,4.77h0Z"/>
  <path class="cls-2" d="M426.66,226.73c1.36,5.07-1.64,10.27-6.71,11.63-5.07,1.36-10.27-1.65-11.63-6.71-1.36-5.07,1.65-10.28,6.71-11.63,5.07-1.36,10.27,1.65,11.63,6.72h0Z"/>
  <path class="cls-2" d="M451.95,245.12c1.11,4.15-1.35,8.4-5.5,9.51-4.14,1.11-8.4-1.35-9.51-5.49-1.11-4.15,1.35-8.4,5.49-9.52,4.15-1.11,8.41,1.35,9.52,5.5h0Z"/>
  <path class="cls-2" d="M465.89,271.68c.93,3.49-1.13,7.08-4.63,8.01-3.49.93-7.07-1.13-8.01-4.63-.94-3.49,1.13-7.08,4.62-8.01,3.49-.94,7.08,1.13,8.01,4.63h0Z"/>
  <path class="cls-2" d="M475.78,302.61c.69,2.57-.83,5.21-3.41,5.9-2.57.69-5.21-.84-5.9-3.41-.69-2.57.84-5.21,3.41-5.9,2.57-.69,5.21.84,5.9,3.41h0Z"/>
  <path class="cls-2" d="M399.15,217.64c1.87,6.96-2.26,14.11-9.22,15.97-6.96,1.86-14.11-2.26-15.97-9.22-1.86-6.96,2.26-14.11,9.22-15.97,6.96-1.86,14.11,2.26,15.97,9.22h0Z"/>
  <path class="cls-4" d="M428.42,271.9c0,5.25-4.25,9.5-9.49,9.49-5.24,0-9.5-4.25-9.5-9.49,0-5.25,4.25-9.5,9.5-9.5s9.5,4.25,9.49,9.5h0Z"/>
  <path class="cls-4" d="M448.09,296.21c0,4.3-3.48,7.77-7.77,7.77s-7.77-3.48-7.77-7.77c0-4.29,3.48-7.77,7.77-7.77s7.77,3.48,7.77,7.77h0Z"/>
  <path class="cls-4" d="M454.68,325.47c0,3.62-2.93,6.54-6.54,6.54-3.61,0-6.54-2.93-6.54-6.54s2.93-6.54,6.54-6.54c3.61,0,6.54,2.93,6.54,6.54h0Z"/>
  <path class="cls-4" d="M456.22,357.91c0,2.66-2.15,4.82-4.82,4.82-2.66,0-4.82-2.16-4.82-4.82s2.16-4.82,4.82-4.82,4.81,2.16,4.81,4.82h0Z"/>
  <path class="cls-4" d="M404.2,256c0,7.21-5.84,13.04-13.04,13.04-7.2,0-13.04-5.84-13.04-13.04,0-7.2,5.84-13.04,13.04-13.04,7.2,0,13.04,5.84,13.04,13.04h0Z"/>
  <path class="cls-4" d="M418.43,315.98c-1.36,5.07-6.56,8.07-11.63,6.71-5.07-1.36-8.07-6.56-6.72-11.63,1.36-5.07,6.57-8.08,11.63-6.72,5.07,1.36,8.07,6.57,6.71,11.63h0Z"/>
  <path class="cls-4" d="M431.14,344.56c-1.11,4.15-5.37,6.6-9.52,5.49-4.14-1.11-6.6-5.37-5.49-9.52,1.11-4.15,5.37-6.6,9.51-5.49,4.15,1.11,6.61,5.37,5.5,9.52h0Z"/>
  <path class="cls-4" d="M429.93,374.52c-.94,3.49-4.52,5.56-8.01,4.63-3.49-.94-5.56-4.52-4.63-8.01.94-3.49,4.52-5.56,8.01-4.63,3.49.94,5.56,4.52,4.63,8.01h0Z"/>
  <path class="cls-4" d="M423.03,406.26c-.69,2.57-3.33,4.09-5.9,3.41-2.57-.69-4.09-3.33-3.4-5.9.69-2.57,3.33-4.09,5.9-3.41,2.57.69,4.09,3.33,3.4,5.9h0Z"/>
  <path class="cls-4" d="M399.15,294.36c-1.86,6.96-9.01,11.09-15.97,9.22-6.96-1.86-11.09-9.01-9.22-15.97,1.86-6.96,9.01-11.09,15.97-9.22,6.96,1.87,11.09,9.01,9.22,15.97h0Z"/>
  <path class="cls-4" d="M397.37,355.98c-2.62,4.54-8.43,6.1-12.97,3.47-4.54-2.62-6.1-8.43-3.48-12.97,2.62-4.54,8.43-6.1,12.97-3.48,4.54,2.62,6.1,8.43,3.47,12.97h0Z"/>
  <path class="cls-4" d="M402.25,386.87c-2.15,3.72-6.9,4.99-10.62,2.84-3.72-2.15-4.99-6.9-2.84-10.62,2.15-3.72,6.9-4.99,10.61-2.84,3.72,2.15,4.99,6.9,2.85,10.62h0Z"/>
  <path class="cls-4" d="M393.33,415.5c-1.81,3.13-5.81,4.2-8.94,2.39-3.13-1.81-4.2-5.81-2.39-8.94,1.81-3.13,5.81-4.2,8.94-2.39,3.13,1.81,4.2,5.81,2.39,8.94h0Z"/>
  <path class="cls-4" d="M378.44,444.37c-1.33,2.3-4.27,3.09-6.58,1.76-2.3-1.33-3.09-4.28-1.76-6.58,1.33-2.3,4.27-3.09,6.58-1.76,2.3,1.33,3.09,4.28,1.76,6.58h0Z"/>
  <path class="cls-4" d="M384.35,330.1c-3.6,6.24-11.58,8.38-17.81,4.77-6.24-3.6-8.37-11.58-4.77-17.81,3.6-6.24,11.58-8.38,17.81-4.78,6.24,3.6,8.38,11.58,4.77,17.81h0Z"/>
  <path class="cls-3" d="M366.67,389.16c-3.71,3.71-9.72,3.71-13.43,0-3.71-3.71-3.71-9.72,0-13.42,3.71-3.71,9.72-3.71,13.43,0,3.71,3.71,3.71,9.72,0,13.43h0Z"/>
  <path class="cls-3" d="M363.4,420.26c-3.04,3.03-7.95,3.03-10.99,0-3.03-3.03-3.03-7.95,0-10.99,3.04-3.03,7.95-3.03,10.99,0,3.04,3.04,3.04,7.96,0,10.99h0Z"/>
  <path class="cls-3" d="M347.36,445.61c-2.56,2.56-6.7,2.56-9.25,0-2.55-2.56-2.56-6.7,0-9.25,2.56-2.56,6.7-2.55,9.25,0,2.56,2.56,2.56,6.7,0,9.25h0Z"/>
  <path class="cls-3" d="M325.52,469.64c-1.88,1.88-4.93,1.88-6.81,0-1.88-1.88-1.88-4.93,0-6.81,1.88-1.88,4.93-1.88,6.81,0,1.88,1.88,1.88,4.93,0,6.81h0Z"/>
  <path class="cls-3" d="M360.8,360.79c-5.09,5.1-13.35,5.1-18.44,0-5.09-5.09-5.09-13.35,0-18.44,5.09-5.09,13.35-5.1,18.44,0,5.09,5.1,5.09,13.35,0,18.44h0Z"/>
  <path class="cls-3" d="M328.44,413.27c-4.54,2.62-10.35,1.07-12.97-3.48-2.62-4.54-1.07-10.35,3.47-12.97,4.54-2.62,10.35-1.07,12.98,3.47,2.62,4.54,1.06,10.35-3.48,12.97h0Z"/>
  <path class="cls-3" d="M317.22,442.46c-3.72,2.15-8.47.87-10.62-2.85-2.14-3.72-.87-8.46,2.85-10.61,3.72-2.15,8.47-.87,10.61,2.84,2.15,3.72.87,8.47-2.84,10.62h0Z"/>
  <path class="cls-3" d="M295.18,462.79c-3.13,1.81-7.13.74-8.94-2.39-1.81-3.13-.74-7.13,2.39-8.94,3.13-1.81,7.13-.73,8.93,2.39,1.81,3.13.74,7.13-2.39,8.94h0Z"/>
  <path class="cls-3" d="M267.86,480.35c-2.3,1.33-5.25.54-6.58-1.76-1.33-2.3-.54-5.25,1.76-6.58,2.3-1.33,5.25-.54,6.58,1.76,1.33,2.3.54,5.25-1.76,6.58h0Z"/>
  <path class="cls-3" d="M330.1,384.35c-6.24,3.61-14.21,1.47-17.81-4.77-3.6-6.24-1.47-14.21,4.77-17.81,6.24-3.6,14.21-1.47,17.82,4.77,3.6,6.24,1.47,14.21-4.78,17.81h0Z"/>
  <path class="cls-3" d="M285.26,426.66c-5.06,1.36-10.27-1.64-11.63-6.71-1.36-5.07,1.65-10.27,6.71-11.63,5.07-1.36,10.28,1.65,11.63,6.71,1.36,5.07-1.65,10.27-6.72,11.63h0Z"/>
  <path class="cls-3" d="M266.88,451.95c-4.15,1.11-8.4-1.35-9.51-5.5-1.11-4.14,1.35-8.4,5.5-9.52,4.15-1.11,8.4,1.35,9.51,5.49,1.11,4.15-1.35,8.41-5.49,9.52h0Z"/>
  <path class="cls-3" d="M240.32,465.89c-3.49.93-7.08-1.14-8.01-4.63-.94-3.49,1.13-7.08,4.62-8.01,3.49-.94,7.08,1.14,8.01,4.63.94,3.49-1.14,7.08-4.63,8.01h0Z"/>
  <path class="cls-3" d="M209.39,475.78c-2.57.69-5.21-.83-5.9-3.4-.69-2.57.83-5.21,3.41-5.9,2.57-.69,5.21.84,5.9,3.41.69,2.57-.84,5.21-3.41,5.9h0Z"/>
  <path class="cls-3" d="M294.36,399.15c-6.96,1.87-14.11-2.26-15.97-9.22-1.86-6.96,2.26-14.11,9.22-15.97,6.96-1.86,14.11,2.26,15.97,9.22,1.86,6.96-2.27,14.11-9.22,15.97h0Z"/>
  <path class="cls-8" d="M240.1,428.42c-5.24,0-9.5-4.25-9.49-9.5,0-5.24,4.25-9.5,9.49-9.49,5.25,0,9.5,4.25,9.5,9.5s-4.25,9.5-9.5,9.49h0Z"/>
  <path class="cls-8" d="M215.79,448.09c-4.3,0-7.77-3.48-7.77-7.77s3.48-7.77,7.77-7.77c4.29,0,7.77,3.48,7.77,7.77s-3.48,7.77-7.77,7.77h0Z"/>
  <path class="cls-8" d="M186.53,454.68c-3.62,0-6.54-2.93-6.54-6.54,0-3.61,2.93-6.54,6.54-6.54s6.54,2.93,6.54,6.54c0,3.61-2.93,6.54-6.54,6.54h0Z"/>
  <path class="cls-8" d="M154.09,456.22c-2.66,0-4.82-2.15-4.82-4.82s2.16-4.82,4.82-4.82,4.81,2.16,4.82,4.82c0,2.66-2.16,4.81-4.82,4.81h0Z"/>
  <path class="cls-8" d="M256,404.2c-7.21,0-13.04-5.84-13.04-13.04,0-7.2,5.84-13.04,13.04-13.04,7.2,0,13.04,5.84,13.04,13.04,0,7.2-5.84,13.04-13.04,13.04h0Z"/>
  <path class="cls-8" d="M196.01,418.43c-5.06-1.36-8.07-6.56-6.71-11.63,1.36-5.07,6.56-8.07,11.63-6.71,5.07,1.36,8.08,6.56,6.72,11.63-1.36,5.07-6.57,8.07-11.63,6.71h0Z"/>
  <path class="cls-8" d="M167.44,431.14c-4.15-1.11-6.6-5.37-5.49-9.52,1.11-4.14,5.37-6.6,9.52-5.49,4.15,1.11,6.6,5.37,5.49,9.51-1.11,4.15-5.37,6.61-9.52,5.5h0Z"/>
  <path class="cls-8" d="M137.48,429.93c-3.49-.94-5.56-4.52-4.62-8.01.94-3.49,4.52-5.56,8.01-4.63,3.49.94,5.56,4.52,4.63,8.01-.94,3.49-4.52,5.56-8.01,4.63h0Z"/>
  <path class="cls-8" d="M105.74,423.03c-2.57-.69-4.1-3.33-3.41-5.9.69-2.57,3.33-4.09,5.9-3.4,2.57.69,4.09,3.33,3.4,5.9-.69,2.57-3.33,4.09-5.9,3.41h0Z"/>
  <path class="cls-8" d="M217.64,399.15c-6.96-1.86-11.09-9.01-9.22-15.97,1.86-6.96,9.01-11.09,15.97-9.22,6.96,1.86,11.09,9.01,9.22,15.97-1.87,6.96-9.02,11.09-15.97,9.22h0Z"/>
  <path class="cls-8" d="M156.02,397.37c-4.54-2.62-6.1-8.43-3.47-12.97,2.62-4.54,8.43-6.1,12.97-3.48,4.54,2.63,6.1,8.43,3.48,12.97-2.62,4.54-8.43,6.1-12.97,3.47h0Z"/>
  <path class="cls-8" d="M125.13,402.25c-3.72-2.15-4.99-6.9-2.84-10.61,2.15-3.72,6.89-4.99,10.62-2.84,3.72,2.15,4.99,6.9,2.84,10.61-2.15,3.72-6.9,4.99-10.62,2.85h0Z"/>
  <path class="cls-8" d="M96.5,393.33c-3.13-1.81-4.2-5.81-2.39-8.94,1.81-3.13,5.81-4.2,8.94-2.39,3.13,1.81,4.2,5.81,2.39,8.94-1.81,3.13-5.81,4.2-8.94,2.39h0Z"/>
  <path class="cls-8" d="M67.63,378.44c-2.3-1.33-3.1-4.27-1.76-6.58,1.33-2.3,4.27-3.09,6.58-1.76,2.3,1.33,3.09,4.27,1.76,6.58-1.33,2.3-4.28,3.09-6.58,1.76h0Z"/>
  <path class="cls-8" d="M181.9,384.35c-6.24-3.6-8.38-11.58-4.77-17.81,3.6-6.24,11.58-8.37,17.81-4.77,6.24,3.6,8.38,11.58,4.78,17.81-3.61,6.24-11.58,8.38-17.81,4.77h0Z"/>
  <path class="cls-5" d="M122.84,366.67c-3.71-3.71-3.71-9.72,0-13.43,3.71-3.71,9.72-3.71,13.42,0,3.71,3.71,3.71,9.72,0,13.43-3.71,3.71-9.72,3.71-13.43,0h0Z"/>
  <path class="cls-5" d="M91.74,363.4c-3.04-3.04-3.03-7.95,0-10.99,3.03-3.03,7.95-3.03,10.99,0,3.04,3.03,3.03,7.95,0,10.98-3.04,3.04-7.96,3.04-10.99,0h0Z"/>
  <path class="cls-5" d="M66.39,347.36c-2.56-2.56-2.56-6.7,0-9.25,2.56-2.55,6.7-2.55,9.25,0,2.56,2.56,2.55,6.7,0,9.25-2.56,2.55-6.7,2.55-9.25,0h0Z"/>
  <path class="cls-5" d="M42.36,325.52c-1.88-1.88-1.88-4.93,0-6.81,1.88-1.88,4.93-1.88,6.81,0,1.88,1.88,1.88,4.93,0,6.81-1.88,1.88-4.93,1.88-6.81,0h0Z"/>
  <path class="cls-5" d="M151.21,360.79c-5.1-5.09-5.1-13.35,0-18.44,5.09-5.09,13.35-5.09,18.44,0,5.09,5.09,5.09,13.35,0,18.44-5.1,5.09-13.35,5.1-18.44,0h0Z"/>
  <path class="cls-5" d="M98.73,328.43c-2.62-4.54-1.07-10.35,3.48-12.97,4.54-2.62,10.35-1.07,12.97,3.47,2.62,4.54,1.07,10.35-3.47,12.98-4.54,2.62-10.35,1.06-12.98-3.48h0Z"/>
  <path class="cls-5" d="M69.54,317.22c-2.15-3.72-.87-8.47,2.85-10.62,3.72-2.14,8.46-.87,10.61,2.85,2.15,3.72.87,8.46-2.84,10.61-3.72,2.15-8.47.87-10.62-2.84h0Z"/>
  <path class="cls-5" d="M49.21,295.18c-1.8-3.13-.74-7.13,2.39-8.93,3.13-1.81,7.13-.74,8.94,2.39,1.81,3.13.73,7.13-2.39,8.94-3.13,1.81-7.13.74-8.94-2.39h0Z"/>
  <path class="cls-5" d="M31.65,267.86c-1.33-2.3-.55-5.25,1.76-6.58,2.3-1.33,5.25-.54,6.58,1.77,1.33,2.3.54,5.25-1.76,6.58-2.3,1.33-5.25.54-6.58-1.77h0Z"/>
  <path class="cls-5" d="M127.65,330.1c-3.61-6.24-1.47-14.21,4.77-17.81,6.24-3.6,14.21-1.47,17.81,4.78,3.6,6.24,1.47,14.21-4.77,17.81-6.24,3.6-14.22,1.47-17.81-4.78h0Z"/>
  <path class="cls-5" d="M85.34,285.26c-1.36-5.06,1.64-10.27,6.72-11.63,5.07-1.36,10.27,1.65,11.63,6.71,1.36,5.07-1.65,10.28-6.71,11.63-5.07,1.36-10.28-1.65-11.63-6.72h0Z"/>
  <path class="cls-5" d="M60.05,266.88c-1.11-4.15,1.35-8.4,5.5-9.51,4.14-1.11,8.4,1.35,9.52,5.5,1.11,4.15-1.35,8.4-5.49,9.51-4.15,1.11-8.41-1.35-9.52-5.49h0Z"/>
  <path class="cls-5" d="M46.11,240.32c-.93-3.49,1.14-7.08,4.63-8.01,3.49-.93,7.08,1.14,8.01,4.63.94,3.49-1.14,7.08-4.63,8.01-3.49.94-7.08-1.14-8.01-4.63h0Z"/>
  <path class="cls-5" d="M36.22,209.39c-.69-2.57.83-5.21,3.4-5.9,2.57-.69,5.21.84,5.9,3.41.69,2.57-.84,5.21-3.41,5.9-2.57.69-5.21-.84-5.9-3.41h0Z"/>
  <path class="cls-5" d="M112.85,294.36c-1.87-6.96,2.26-14.11,9.22-15.97,6.96-1.86,14.11,2.26,15.97,9.22,1.86,6.96-2.26,14.11-9.22,15.97-6.96,1.86-14.11-2.26-15.97-9.22h0Z"/>
  <path class="cls-1" d="M83.58,240.1c0-5.24,4.25-9.49,9.5-9.49,5.25,0,9.5,4.25,9.5,9.49,0,5.25-4.25,9.5-9.5,9.5s-9.5-4.25-9.49-9.5h0Z"/>
  <path class="cls-1" d="M63.91,215.79c0-4.3,3.48-7.77,7.77-7.77s7.77,3.48,7.77,7.77c0,4.29-3.48,7.77-7.77,7.77s-7.77-3.48-7.77-7.77h0Z"/>
  <path class="cls-1" d="M57.32,186.53c0-3.62,2.93-6.55,6.54-6.54,3.61,0,6.54,2.93,6.54,6.54s-2.93,6.54-6.54,6.54-6.54-2.93-6.54-6.54h0Z"/>
  <path class="cls-1" d="M55.78,154.09c0-2.66,2.15-4.82,4.82-4.82s4.82,2.16,4.82,4.82c0,2.66-2.16,4.81-4.82,4.82-2.66,0-4.81-2.16-4.81-4.82h0Z"/>
  <path class="cls-1" d="M107.8,256c0-7.2,5.84-13.04,13.04-13.04,7.2,0,13.04,5.84,13.04,13.04,0,7.2-5.84,13.04-13.04,13.04-7.21,0-13.04-5.84-13.04-13.04h0Z"/>
  <path class="cls-1" d="M93.57,196.01c1.36-5.06,6.56-8.07,11.63-6.71,5.07,1.36,8.07,6.57,6.71,11.63-1.36,5.07-6.57,8.08-11.63,6.72-5.07-1.36-8.07-6.57-6.71-11.63h0Z"/>
  <path class="cls-1" d="M80.86,167.44c1.11-4.15,5.37-6.6,9.52-5.49,4.14,1.11,6.6,5.37,5.49,9.52-1.11,4.15-5.37,6.6-9.51,5.49-4.16-1.11-6.61-5.37-5.5-9.52h0Z"/>
  <path class="cls-1" d="M82.07,137.48c.94-3.49,4.52-5.56,8.01-4.63,3.49.94,5.56,4.52,4.63,8.01-.94,3.49-4.52,5.56-8.01,4.63-3.49-.94-5.56-4.52-4.62-8.01h0Z"/>
  <path class="cls-1" d="M88.97,105.74c.69-2.57,3.33-4.09,5.9-3.4,2.57.69,4.09,3.33,3.4,5.9-.69,2.57-3.33,4.09-5.9,3.41-2.57-.69-4.09-3.33-3.4-5.9h0Z"/>
  <path class="cls-1" d="M112.85,217.64c1.86-6.96,9.01-11.09,15.97-9.22,6.96,1.86,11.08,9.01,9.22,15.97-1.87,6.96-9.01,11.09-15.97,9.22-6.96-1.87-11.09-9.01-9.22-15.97h0Z"/>
  <path class="cls-1" d="M114.63,156.02c2.62-4.54,8.43-6.1,12.97-3.47,4.54,2.62,6.1,8.43,3.48,12.97-2.63,4.54-8.43,6.1-12.97,3.48-4.54-2.62-6.1-8.43-3.47-12.98h0Z"/>
  <path class="cls-1" d="M109.75,125.13c2.15-3.72,6.9-4.99,10.61-2.84,3.72,2.15,4.99,6.89,2.84,10.62-2.14,3.72-6.9,4.99-10.61,2.84-3.73-2.15-4.99-6.9-2.85-10.62h0Z"/>
  <path class="cls-1" d="M118.67,96.5c1.81-3.13,5.81-4.2,8.94-2.39,3.13,1.81,4.2,5.81,2.39,8.94-1.81,3.13-5.81,4.2-8.94,2.39-3.13-1.81-4.2-5.81-2.39-8.94h0Z"/>
  <path class="cls-1" d="M133.55,67.63c1.33-2.3,4.27-3.1,6.58-1.76,2.3,1.33,3.09,4.28,1.76,6.58-1.33,2.3-4.27,3.09-6.58,1.76-2.3-1.33-3.09-4.28-1.76-6.58h0Z"/>
  <path class="cls-1" d="M127.65,181.9c3.6-6.24,11.58-8.38,17.81-4.77,6.24,3.6,8.37,11.58,4.77,17.82-3.6,6.24-11.58,8.37-17.81,4.77-6.24-3.61-8.38-11.58-4.77-17.82h0Z"/>
  <path class="cls-6" d="M145.33,122.83c3.71-3.71,9.72-3.71,13.43,0,3.71,3.71,3.71,9.72,0,13.42-3.71,3.71-9.72,3.71-13.43,0-3.71-3.71-3.71-9.73,0-13.43h0Z"/>
  <path class="cls-6" d="M148.6,91.74c3.04-3.04,7.95-3.03,10.99,0,3.03,3.03,3.03,7.95,0,10.99-3.03,3.04-7.95,3.03-10.98,0-3.04-3.04-3.04-7.96,0-10.99h0Z"/>
  <path class="cls-6" d="M164.63,66.39c2.56-2.55,6.7-2.56,9.25,0,2.55,2.56,2.56,6.7,0,9.25-2.55,2.55-6.7,2.55-9.25,0-2.55-2.56-2.55-6.7,0-9.25h0Z"/>
  <path class="cls-6" d="M186.48,42.36c1.88-1.88,4.93-1.88,6.81,0,1.88,1.88,1.88,4.93,0,6.81-1.88,1.88-4.93,1.88-6.81,0-1.88-1.88-1.88-4.93,0-6.81h0Z"/>
  <path class="cls-6" d="M151.21,151.2c5.09-5.1,13.35-5.1,18.44,0,5.09,5.09,5.09,13.35,0,18.44-5.09,5.09-13.35,5.09-18.44,0-5.09-5.1-5.09-13.35,0-18.44h0Z"/>
  <path class="cls-6" d="M183.56,98.73c4.54-2.62,10.35-1.07,12.97,3.48,2.62,4.54,1.07,10.35-3.47,12.97-4.54,2.62-10.35,1.07-12.97-3.47-2.62-4.54-1.06-10.35,3.48-12.98h0Z"/>
  <path class="cls-6" d="M194.77,69.54c3.72-2.15,8.47-.87,10.62,2.84,2.14,3.72.87,8.46-2.85,10.61-3.72,2.15-8.46.87-10.61-2.84-2.15-3.72-.88-8.47,2.84-10.62h0Z"/>
  <path class="cls-6" d="M216.82,49.21c3.13-1.81,7.13-.74,8.94,2.39,1.8,3.13.73,7.13-2.39,8.94-3.13,1.81-7.13.73-8.94-2.39-1.81-3.13-.73-7.13,2.39-8.94h0Z"/>
  <path class="cls-6" d="M244.14,31.65c2.3-1.33,5.25-.55,6.58,1.76,1.33,2.3.54,5.25-1.77,6.58-2.3,1.33-5.25.54-6.58-1.76-1.33-2.3-.54-5.25,1.77-6.58h0Z"/>
  <path class="cls-6" d="M181.9,127.65c6.24-3.6,14.21-1.47,17.81,4.78,3.6,6.24,1.47,14.21-4.77,17.81-6.24,3.6-14.21,1.47-17.81-4.77-3.6-6.24-1.47-14.22,4.78-17.82h0Z"/>
  <path class="cls-6" d="M226.74,85.34c5.06-1.36,10.27,1.65,11.63,6.72,1.36,5.07-1.65,10.28-6.71,11.63-5.07,1.36-10.28-1.65-11.63-6.71-1.36-5.07,1.65-10.28,6.72-11.63h0Z"/>
  <path class="cls-6" d="M245.12,60.05c4.15-1.11,8.4,1.35,9.52,5.5,1.11,4.14-1.35,8.4-5.5,9.51-4.14,1.12-8.4-1.35-9.51-5.49-1.12-4.15,1.35-8.41,5.49-9.52h0Z"/>
  <path class="cls-6" d="M271.68,46.11c3.49-.93,7.08,1.13,8.01,4.63.93,3.49-1.13,7.07-4.63,8.01-3.49.94-7.08-1.14-8.01-4.63-.94-3.49,1.14-7.08,4.63-8.01h0Z"/>
  <path class="cls-6" d="M302.61,36.22c2.57-.69,5.21.83,5.9,3.41.69,2.57-.84,5.21-3.41,5.9-2.57.69-5.21-.84-5.9-3.41-.69-2.57.84-5.21,3.41-5.9h0Z"/>
  <path class="cls-6" d="M217.64,112.85c6.96-1.87,14.11,2.26,15.97,9.22,1.86,6.96-2.26,14.11-9.22,15.97-6.96,1.86-14.11-2.26-15.97-9.22-1.86-6.96,2.26-14.11,9.22-15.97h0Z"/>
  <path class="cls-7" d="M256,107.8c7.2,0,13.04,5.84,13.04,13.04s-5.84,13.04-13.04,13.04-13.04-5.84-13.04-13.04,5.84-13.04,13.04-13.04h0Z"/>
  <path class="cls-7" d="M271.9,83.58c5.25,0,9.5,4.25,9.5,9.5s-4.25,9.5-9.5,9.5-9.5-4.25-9.5-9.5,4.25-9.5,9.5-9.5h0Z"/>
</svg>