<?xml version="1.0" encoding="UTF-8"?>
<svg id="Landform_Colour" data-name="Landform Colour" xmlns="http://www.w3.org/2000/svg" viewBox="0 0 512 512">
  <defs>
    <style>
      .cls-1 {
        fill: #fdad15;
      }

      .cls-1, .cls-2, .cls-3, .cls-4, .cls-5, .cls-6 {
        fill-rule: evenodd;
        stroke-width: 0px;
      }

      .cls-2 {
        fill: #e33f57;
      }

      .cls-3 {
        fill: #91459d;
      }

      .cls-4 {
        fill: #3691cd;
      }

      .cls-5 {
        fill: #3fa16b;
      }

      .cls-6 {
        fill: #f37334;
      }
    </style>
  </defs>
  <path class="cls-5" d="M119.54,377.73c-7.06-12.47-12.79-25.74-17.08-39.56-2.37-9.85.98-20.02,9.54-25.96,6.65-4.61,14.37-5.48,21.2-3.38-6.98-16.2-10.85-34.06-10.85-52.82,0-21.43,5.05-41.68,14.01-59.63,5.4-8.3,2.69-17.06-3.38-21.04-5.17-3.39-12.87-3.38-18.92,4.11-12.6,14.68-22.51,30.85-29.7,47.93,7.55,7.21,12.25,17.38,12.24,28.64,0,17.25-11.03,31.92-26.42,37.36-.86,33.49,7.38,67.57,24.89,98.69,12.64,18.92,34.04,1.05,24.46-14.33h0ZM31,256c0-14.35,11.63-25.99,25.99-25.99,14.35,0,25.99,11.63,25.98,25.99,0,14.35-11.63,25.99-25.99,25.99s-25.99-11.63-25.99-25.99h0Z"/>
  <path class="cls-1" d="M82.35,198.68c7.27-12.35,15.89-23.94,25.72-34.57,7.35-6.98,17.83-9.16,27.26-4.72,7.32,3.45,11.93,9.71,13.53,16.67,10.54-14.15,24.07-26.43,40.32-35.81,18.56-10.72,38.62-16.47,58.65-17.68,9.89.53,16.12-6.2,16.53-13.44.35-6.17-3.51-12.84-13.02-14.33-19.01-3.57-37.97-4.07-56.36-1.76-2.47,10.14-8.93,19.29-18.68,24.92-14.94,8.63-33.16,6.41-45.56-4.2-29.44,16-54.83,40.18-73.03,70.9-10.06,20.41,16.11,30.01,24.64,14.02h0ZM143.5,61.14c12.43-7.18,28.32-2.92,35.5,9.51,7.18,12.43,2.92,28.32-9.51,35.5-12.43,7.18-28.32,2.92-35.5-9.51-7.18-12.43-2.92-28.32,9.51-35.5h0Z"/>
  <path class="cls-6" d="M218.81,76.96c14.33.12,28.68,1.79,42.8,4.99,9.72,2.88,16.85,10.86,17.72,21.24.67,8.06-2.44,15.19-7.67,20.05,17.52,2.06,34.92,7.63,51.17,17.01,18.56,10.72,33.57,25.21,44.64,41.95,4.49,8.83,13.43,10.86,19.91,7.6,5.52-2.78,9.37-9.46,5.9-18.44-6.41-18.25-15.46-34.92-26.65-49.69-10.02,2.93-21.17,1.92-30.93-3.72-14.94-8.63-22.13-25.51-19.15-41.56-28.57-17.49-62.21-27.4-97.92-27.79-22.7,1.49-17.93,28.95.18,28.35h0ZM368.5,61.14c12.43,7.18,16.69,23.07,9.51,35.5-7.17,12.43-23.07,16.69-35.5,9.51-12.43-7.18-16.69-23.07-9.51-35.5,7.18-12.43,23.07-16.69,35.5-9.51h0Z"/>
  <path class="cls-2" d="M392.46,134.27c7.06,12.47,12.79,25.74,17.08,39.56,2.37,9.85-.98,20.02-9.54,25.96-6.65,4.61-14.37,5.48-21.2,3.38,6.98,16.2,10.85,34.06,10.85,52.82,0,21.43-5.05,41.68-14.01,59.63-5.4,8.3-2.69,17.06,3.38,21.04,5.17,3.39,12.87,3.38,18.92-4.11,12.6-14.68,22.51-30.85,29.7-47.93-7.55-7.21-12.25-17.38-12.24-28.64,0-17.25,11.03-31.92,26.42-37.36.86-33.49-7.38-67.57-24.89-98.69-12.64-18.92-34.04-1.05-24.46,14.33h0ZM481,256c0,14.35-11.63,25.99-25.99,25.99-14.35,0-25.99-11.63-25.98-25.99,0-14.35,11.63-25.99,25.99-25.99s25.98,11.63,25.98,25.99h0Z"/>
  <path class="cls-3" d="M429.65,313.32c-7.27,12.35-15.89,23.94-25.72,34.57-7.35,6.98-17.83,9.16-27.26,4.72-7.32-3.45-11.93-9.71-13.53-16.67-10.54,14.15-24.07,26.43-40.32,35.81-18.56,10.72-38.62,16.47-58.65,17.68-9.89-.53-16.12,6.2-16.53,13.45-.35,6.17,3.51,12.84,13.02,14.33,19.01,3.57,37.97,4.07,56.36,1.76,2.47-10.14,8.93-19.29,18.68-24.92,14.94-8.63,33.16-6.41,45.56,4.2,29.44-16,54.83-40.18,73.03-70.9,10.06-20.41-16.11-30.01-24.64-14.02h0ZM368.5,450.86c-12.43,7.18-28.32,2.92-35.5-9.51-7.18-12.43-2.92-28.32,9.51-35.5,12.43-7.18,28.32-2.92,35.5,9.51,7.18,12.43,2.92,28.32-9.51,35.5h0Z"/>
  <path class="cls-4" d="M293.19,435.04c-14.33-.12-28.68-1.79-42.8-4.99-9.72-2.88-16.85-10.86-17.72-21.24-.67-8.06,2.44-15.19,7.67-20.05-17.52-2.06-34.92-7.63-51.17-17.01-18.56-10.72-33.57-25.21-44.64-41.95-4.49-8.83-13.43-10.86-19.91-7.6-5.52,2.78-9.37,9.46-5.9,18.44,6.41,18.25,15.46,34.92,26.65,49.69,10.02-2.93,21.17-1.92,30.93,3.72,14.94,8.63,22.13,25.51,19.15,41.56,28.57,17.49,62.21,27.4,97.92,27.79,22.7-1.49,17.93-28.95-.18-28.35h0ZM143.5,450.86c-12.43-7.17-16.69-23.07-9.51-35.5,7.17-12.43,23.07-16.69,35.5-9.51,12.43,7.18,16.69,23.07,9.51,35.5-7.18,12.43-23.07,16.69-35.5,9.51h0Z"/>
  <path class="cls-4" d="M256.01,150.4h0c58.08,0,105.6,47.52,105.6,105.6h0c0,58.08-47.52,105.6-105.6,105.6h0c-58.08,0-105.6-47.52-105.6-105.6h0c0-58.08,47.52-105.6,105.6-105.6h0ZM283.5,163.38c9.21,9.31,16.91,23.14,22.19,39.84,5.14-2.28,10.12-4.94,14.88-7.99,2.23-1.43,4.4-2.93,6.52-4.53-11.67-12.69-26.68-22.27-43.58-27.32h0ZM332.85,197.58c-7.43,5.63-15.73,10.46-24.7,14.33,3.06,12.15,4.9,25.53,5.22,39.6h39.17c-.93-20.18-8.13-38.8-19.69-53.94h0ZM352.54,260.49h-39.17c-.32,14.07-2.16,27.45-5.22,39.6,8.97,3.87,17.27,8.7,24.7,14.34,11.55-15.14,18.76-33.76,19.69-53.94h0ZM327.08,321.3c-2.12-1.59-4.29-3.1-6.52-4.53-4.76-3.04-9.74-5.71-14.88-7.99-5.28,16.69-12.97,30.52-22.18,39.84,16.91-5.05,31.91-14.63,43.58-27.32h0ZM228.51,348.63c-9.21-9.31-16.91-23.14-22.18-39.84-5.14,2.28-10.12,4.94-14.88,7.99-2.23,1.43-4.4,2.93-6.52,4.52,11.67,12.69,26.68,22.27,43.58,27.33h0ZM179.17,314.43c7.43-5.63,15.73-10.46,24.7-14.34-3.06-12.15-4.9-25.53-5.22-39.6h-39.17c.93,20.18,8.13,38.8,19.69,53.94h0ZM159.48,251.52h39.17c.32-14.07,2.16-27.45,5.22-39.6-8.97-3.87-17.27-8.7-24.7-14.33-11.55,15.14-18.76,33.76-19.69,53.94h0ZM184.93,190.71c2.12,1.59,4.29,3.1,6.52,4.53,4.76,3.04,9.74,5.71,14.88,7.99,5.28-16.69,12.97-30.52,22.18-39.84-16.91,5.06-31.91,14.63-43.58,27.32h0ZM260.49,289.58c13.83.45,27.06,2.98,39.25,7.23,2.91-11.99,4.38-24.45,4.67-36.33h-43.92v29.1h0ZM297.35,305.48c-11.82-4.18-24.31-6.48-36.86-6.92v53.64c12.66-2.53,22.45-15.33,28.19-25.89,3.53-6.49,6.39-13.52,8.67-20.83h0ZM251.52,352.19v-53.64c-12.55.44-25.04,2.74-36.86,6.92,2.27,7.31,5.14,14.34,8.67,20.83,5.74,10.56,15.53,23.36,28.19,25.89h0ZM212.28,296.82c12.19-4.25,25.41-6.78,39.25-7.23v-29.1h-43.92c.29,11.88,1.75,24.34,4.67,36.33h0ZM207.61,251.52h43.92v-29.1c-13.84-.45-27.06-2.98-39.25-7.24-2.91,11.99-4.38,24.45-4.67,36.33h0ZM214.66,206.54c11.82,4.18,24.31,6.48,36.86,6.92v-53.64c-12.66,2.53-22.45,15.33-28.19,25.89-3.53,6.49-6.39,13.52-8.67,20.83h0ZM260.49,159.82v53.64c12.55-.44,25.04-2.74,36.86-6.92-2.27-7.31-5.14-14.34-8.67-20.83-5.74-10.56-15.53-23.36-28.19-25.89h0ZM299.74,215.19c-12.19,4.25-25.41,6.78-39.25,7.24v29.1h43.92c-.29-11.88-1.75-24.34-4.67-36.33h0Z"/>
</svg>