<?xml version="1.0" encoding="utf-8"?>
<!-- Generator: Adobe Illustrator 28.1.0, SVG Export Plug-In . SVG Version: 6.00 Build 0)  -->
<svg version="1.1" id="Layer_1" xmlns="http://www.w3.org/2000/svg" xmlns:xlink="http://www.w3.org/1999/xlink" x="0px" y="0px"
	 viewBox="0 0 20 20" style="enable-background:new 0 0 20 20;" xml:space="preserve">
<style type="text/css">
	.st0{fill-rule:evenodd;clip-rule:evenodd;fill:#FDAD15;}
	.st1{fill-rule:evenodd;clip-rule:evenodd;fill:#D79315;}
	.st2{fill-rule:evenodd;clip-rule:evenodd;fill:#F37334;}
	.st3{fill-rule:evenodd;clip-rule:evenodd;fill:#D6632A;}
	.st4{fill-rule:evenodd;clip-rule:evenodd;fill:#E33F57;}
	.st5{fill-rule:evenodd;clip-rule:evenodd;fill:#C6384C;}
	.st6{fill-rule:evenodd;clip-rule:evenodd;fill:#91459D;}
	.st7{fill-rule:evenodd;clip-rule:evenodd;fill:#7B3D85;}
	.st8{fill-rule:evenodd;clip-rule:evenodd;fill:#3691CD;}
	.st9{fill-rule:evenodd;clip-rule:evenodd;fill:#2C7EB6;}
	.st10{fill-rule:evenodd;clip-rule:evenodd;fill:#3FA16B;}
	.st11{fill-rule:evenodd;clip-rule:evenodd;fill:#338B63;}
</style>
<g>
	<path class="st0" d="M14.4,15.07c0.46-0.15,0.87-0.37,1.24-0.63c0-0.06-0.01-0.12-0.01-0.18c0.02-0.92,0.71-1.67,1.6-1.77
		c0.56-1.26,0.58-2.76-0.09-4.11c-0.14,2.05-1.49,3.91-3.56,4.61c-1.93,0.65-3.98,0.12-5.34-1.21c0.02,0.09,0.05,0.18,0.08,0.27
		C9.18,14.57,11.89,15.92,14.4,15.07L14.4,15.07z M18.7,14.32c-0.01,0.69-0.58,1.24-1.27,1.22c-0.69-0.01-1.24-0.58-1.22-1.27
		c0.01-0.69,0.58-1.24,1.27-1.22C18.16,13.06,18.71,13.63,18.7,14.32L18.7,14.32z"/>
	<path class="st1" d="M17.15,8.39c-0.14,2.05-1.49,3.91-3.56,4.61c-1.93,0.65-3.98,0.12-5.34-1.21
		C11.01,16.07,18.03,13.46,17.15,8.39L17.15,8.39z"/>
	<path class="st2" d="M7.81,16.35c0.36,0.32,0.75,0.57,1.16,0.76c0.05-0.03,0.1-0.06,0.15-0.09c0.81-0.45,1.8-0.22,2.34,0.5
		c1.37-0.14,2.68-0.87,3.51-2.13c-1.85,0.9-4.13,0.67-5.78-0.77c-1.53-1.34-2.09-3.38-1.63-5.23C7.5,9.44,7.44,9.51,7.37,9.59
		C5.63,11.57,5.82,14.6,7.81,16.35L7.81,16.35z M10.61,19.69c-0.6,0.33-1.36,0.12-1.69-0.49c-0.33-0.6-0.12-1.36,0.49-1.69
		c0.6-0.33,1.36-0.12,1.69,0.49C11.43,18.6,11.21,19.36,10.61,19.69L10.61,19.69z"/>
	<path class="st3" d="M14.97,15.38c-1.85,0.9-4.13,0.67-5.78-0.77c-1.53-1.34-2.09-3.38-1.63-5.23
		C5.25,13.91,11.02,18.69,14.97,15.38L14.97,15.38z"/>
	<path class="st4" d="M3.41,11.28c-0.09,0.47-0.12,0.94-0.08,1.39c0.05,0.03,0.1,0.05,0.15,0.08c0.79,0.47,1.09,1.45,0.73,2.28
		c0.81,1.12,2.1,1.88,3.6,1.97c-1.7-1.15-2.64-3.25-2.22-5.39c0.4-2,1.88-3.5,3.72-4.03C9.23,7.56,9.14,7.54,9.04,7.52
		C6.45,7,3.93,8.68,3.41,11.28L3.41,11.28z M1.91,15.37c-0.59-0.35-0.78-1.12-0.43-1.71c0.35-0.59,1.12-0.78,1.71-0.43
		c0.59,0.35,0.78,1.12,0.43,1.71C3.27,15.53,2.5,15.73,1.91,15.37L1.91,15.37z"/>
	<path class="st5" d="M7.82,17c-1.7-1.15-2.64-3.25-2.22-5.39c0.4-2,1.88-3.5,3.72-4.03C4.24,7.84,2.99,15.23,7.82,17L7.82,17z"/>
	<path class="st6" d="M5.6,4.93C5.14,5.08,4.73,5.3,4.36,5.56c0,0.06,0.01,0.12,0.01,0.18C4.35,6.65,3.65,7.4,2.76,7.51
		c-0.56,1.26-0.58,2.76,0.09,4.11C2.99,9.56,4.34,7.7,6.41,7c1.93-0.65,3.98-0.12,5.34,1.21c-0.02-0.09-0.05-0.18-0.08-0.27
		C10.82,5.43,8.11,4.08,5.6,4.93L5.6,4.93z M1.3,5.68c0.01-0.69,0.58-1.24,1.27-1.22C3.26,4.47,3.81,5.04,3.8,5.72
		C3.78,6.41,3.22,6.96,2.53,6.95C1.84,6.94,1.29,6.37,1.3,5.68L1.3,5.68z"/>
	<path class="st7" d="M2.85,11.61C2.99,9.56,4.34,7.7,6.41,7c1.93-0.65,3.98-0.12,5.34,1.21C8.99,3.93,1.97,6.54,2.85,11.61
		L2.85,11.61z"/>
	<path class="st8" d="M12.19,3.65c-0.36-0.32-0.75-0.57-1.16-0.76c-0.05,0.03-0.1,0.06-0.15,0.09c-0.81,0.45-1.8,0.22-2.34-0.5
		C7.17,2.62,5.86,3.36,5.03,4.62c1.85-0.9,4.13-0.67,5.78,0.77c1.53,1.34,2.09,3.38,1.63,5.23c0.07-0.07,0.13-0.14,0.19-0.21
		C14.37,8.43,14.18,5.4,12.19,3.65L12.19,3.65z M9.39,0.31c0.6-0.33,1.36-0.12,1.69,0.49c0.33,0.6,0.12,1.36-0.49,1.69
		C10,2.82,9.24,2.61,8.91,2C8.57,1.4,8.79,0.64,9.39,0.31L9.39,0.31z"/>
	<path class="st9" d="M5.03,4.62c1.85-0.9,4.13-0.67,5.78,0.77c1.53,1.34,2.09,3.38,1.63,5.23C14.75,6.09,8.98,1.31,5.03,4.62
		L5.03,4.62z"/>
	<path class="st10" d="M16.59,8.72c0.09-0.47,0.12-0.94,0.08-1.39c-0.05-0.03-0.1-0.05-0.15-0.08c-0.79-0.47-1.09-1.45-0.73-2.28
		c-0.81-1.12-2.1-1.88-3.6-1.97c1.7,1.15,2.64,3.25,2.22,5.39c-0.4,2-1.88,3.5-3.72,4.03c0.09,0.02,0.18,0.05,0.28,0.06
		C13.55,13,16.07,11.32,16.59,8.72L16.59,8.72z M18.09,4.63c0.59,0.35,0.78,1.12,0.43,1.71c-0.35,0.59-1.12,0.78-1.71,0.43
		c-0.59-0.35-0.78-1.12-0.43-1.71C16.73,4.47,17.5,4.27,18.09,4.63L18.09,4.63z"/>
	<path class="st11" d="M12.18,3c1.7,1.15,2.64,3.25,2.22,5.39c-0.4,2-1.88,3.5-3.72,4.03C15.76,12.16,17.01,4.77,12.18,3L12.18,3z"
		/>
</g>
</svg>
